<mxfile host="app.diagrams.net" modified="2024-07-23T08:25:12.630Z" agent="Mozilla/5.0 (Windows NT 10.0; Win64; x64) AppleWebKit/537.36 (KHTML, like Gecko) Chrome/126.0.0.0 Safari/537.36" etag="whRwp7h6yfaWBlzPgdeu" version="24.7.3" type="device">
  <diagram name="Page-1" id="JC2gc2lAXLmlU5teR0VO">
    <mxGraphModel dx="880" dy="434" grid="1" gridSize="10" guides="1" tooltips="1" connect="1" arrows="1" fold="1" page="1" pageScale="1" pageWidth="850" pageHeight="1100" math="0" shadow="0">
      <root>
        <mxCell id="0" />
        <mxCell id="1" parent="0" />
        <mxCell id="p6VZsKSVQVCpqH25MSy7-11" style="edgeStyle=orthogonalEdgeStyle;rounded=0;orthogonalLoop=1;jettySize=auto;html=1;" parent="1" source="p6VZsKSVQVCpqH25MSy7-1" edge="1">
          <mxGeometry relative="1" as="geometry">
            <mxPoint x="410" y="195" as="targetPoint" />
          </mxGeometry>
        </mxCell>
        <mxCell id="p6VZsKSVQVCpqH25MSy7-1" value="Khách hàng" style="rounded=0;whiteSpace=wrap;html=1;" parent="1" vertex="1">
          <mxGeometry x="140" y="165" width="120" height="60" as="geometry" />
        </mxCell>
        <mxCell id="p6VZsKSVQVCpqH25MSy7-2" value="3.1" style="swimlane;fontStyle=0;childLayout=stackLayout;horizontal=1;startSize=20;fillColor=#ffffff;horizontalStack=0;resizeParent=1;resizeParentMax=0;resizeLast=0;collapsible=0;marginBottom=0;swimlaneFillColor=#ffffff;rounded=1;glass=0;arcSize=50;" parent="1" vertex="1">
          <mxGeometry x="410" y="170" width="110" height="50" as="geometry" />
        </mxCell>
        <mxCell id="1hi1GWlvquM66AHrjXNs-1" style="edgeStyle=orthogonalEdgeStyle;rounded=0;orthogonalLoop=1;jettySize=auto;html=1;" edge="1" parent="p6VZsKSVQVCpqH25MSy7-2" source="p6VZsKSVQVCpqH25MSy7-3">
          <mxGeometry relative="1" as="geometry">
            <mxPoint x="190" y="35" as="targetPoint" />
          </mxGeometry>
        </mxCell>
        <mxCell id="p6VZsKSVQVCpqH25MSy7-3" value="Lập danh sách hỗ trợ" style="text;html=1;align=center;verticalAlign=middle;whiteSpace=wrap;rounded=0;" parent="p6VZsKSVQVCpqH25MSy7-2" vertex="1">
          <mxGeometry y="20" width="110" height="30" as="geometry" />
        </mxCell>
        <mxCell id="p6VZsKSVQVCpqH25MSy7-6" value="&lt;font style=&quot;font-size: 9px;&quot;&gt;Thông tin hỗ trợ&lt;/font&gt;" style="text;html=1;align=center;verticalAlign=middle;whiteSpace=wrap;rounded=0;" parent="1" vertex="1">
          <mxGeometry x="290" y="165" width="90" height="30" as="geometry" />
        </mxCell>
        <mxCell id="p6VZsKSVQVCpqH25MSy7-13" value="b." style="html=1;dashed=0;whiteSpace=wrap;shape=mxgraph.dfd.dataStoreID;align=left;spacingLeft=3;points=[[0,0],[0.5,0],[1,0],[0,0.5],[1,0.5],[0,1],[0.5,1],[1,1]];" parent="1" vertex="1">
          <mxGeometry x="410" y="90" width="130" height="30" as="geometry" />
        </mxCell>
        <mxCell id="p6VZsKSVQVCpqH25MSy7-14" value="Danh sách khách hàng" style="text;html=1;align=center;verticalAlign=middle;whiteSpace=wrap;rounded=0;" parent="1" vertex="1">
          <mxGeometry x="450" y="90" width="90" height="30" as="geometry" />
        </mxCell>
        <mxCell id="p6VZsKSVQVCpqH25MSy7-17" value="3.2" style="swimlane;fontStyle=0;childLayout=stackLayout;horizontal=1;startSize=20;fillColor=#ffffff;horizontalStack=0;resizeParent=1;resizeParentMax=0;resizeLast=0;collapsible=0;marginBottom=0;swimlaneFillColor=#ffffff;rounded=1;glass=0;arcSize=50;" parent="1" vertex="1">
          <mxGeometry x="410" y="300" width="110" height="50" as="geometry" />
        </mxCell>
        <mxCell id="p6VZsKSVQVCpqH25MSy7-18" value="Chuyển yêu cầu đến đơn vị bảo trì" style="text;html=1;align=center;verticalAlign=middle;whiteSpace=wrap;rounded=0;" parent="p6VZsKSVQVCpqH25MSy7-17" vertex="1">
          <mxGeometry y="20" width="110" height="30" as="geometry" />
        </mxCell>
        <mxCell id="p6VZsKSVQVCpqH25MSy7-23" style="edgeStyle=orthogonalEdgeStyle;rounded=0;orthogonalLoop=1;jettySize=auto;html=1;entryX=0.591;entryY=0.02;entryDx=0;entryDy=0;entryPerimeter=0;" parent="1" source="p6VZsKSVQVCpqH25MSy7-13" target="p6VZsKSVQVCpqH25MSy7-2" edge="1">
          <mxGeometry relative="1" as="geometry" />
        </mxCell>
        <mxCell id="p6VZsKSVQVCpqH25MSy7-30" style="edgeStyle=orthogonalEdgeStyle;rounded=0;orthogonalLoop=1;jettySize=auto;html=1;" parent="1" source="p6VZsKSVQVCpqH25MSy7-24" edge="1">
          <mxGeometry relative="1" as="geometry">
            <mxPoint x="205" y="230" as="targetPoint" />
          </mxGeometry>
        </mxCell>
        <mxCell id="p6VZsKSVQVCpqH25MSy7-24" value="3.3 " style="swimlane;fontStyle=0;childLayout=stackLayout;horizontal=1;startSize=20;fillColor=#ffffff;horizontalStack=0;resizeParent=1;resizeParentMax=0;resizeLast=0;collapsible=0;marginBottom=0;swimlaneFillColor=#ffffff;rounded=1;glass=0;arcSize=50;" parent="1" vertex="1">
          <mxGeometry x="150" y="300" width="110" height="50" as="geometry" />
        </mxCell>
        <mxCell id="p6VZsKSVQVCpqH25MSy7-25" value="Thông báo các ưu đãi" style="text;html=1;align=center;verticalAlign=middle;whiteSpace=wrap;rounded=0;" parent="p6VZsKSVQVCpqH25MSy7-24" vertex="1">
          <mxGeometry y="20" width="110" height="30" as="geometry" />
        </mxCell>
        <mxCell id="p6VZsKSVQVCpqH25MSy7-29" value="&lt;font style=&quot;font-size: 9px;&quot;&gt;Danh sách ưu đãi&lt;/font&gt;" style="text;html=1;align=center;verticalAlign=middle;whiteSpace=wrap;rounded=0;" parent="1" vertex="1">
          <mxGeometry x="210" y="250" width="90" height="30" as="geometry" />
        </mxCell>
        <mxCell id="1hi1GWlvquM66AHrjXNs-6" style="edgeStyle=orthogonalEdgeStyle;rounded=0;orthogonalLoop=1;jettySize=auto;html=1;entryX=1;entryY=0.25;entryDx=0;entryDy=0;" edge="1" parent="1" source="1hi1GWlvquM66AHrjXNs-3" target="p6VZsKSVQVCpqH25MSy7-18">
          <mxGeometry relative="1" as="geometry">
            <Array as="points">
              <mxPoint x="670" y="328" />
            </Array>
          </mxGeometry>
        </mxCell>
        <mxCell id="1hi1GWlvquM66AHrjXNs-3" value="m.&amp;nbsp;" style="html=1;dashed=0;whiteSpace=wrap;shape=mxgraph.dfd.dataStoreID;align=left;spacingLeft=3;points=[[0,0],[0.5,0],[1,0],[0,0.5],[1,0.5],[0,1],[0.5,1],[1,1]];" vertex="1" parent="1">
          <mxGeometry x="600" y="190" width="130" height="30" as="geometry" />
        </mxCell>
        <mxCell id="1hi1GWlvquM66AHrjXNs-5" value="Danh sách hỗ trợ" style="text;html=1;align=center;verticalAlign=middle;whiteSpace=wrap;rounded=0;" vertex="1" parent="1">
          <mxGeometry x="630" y="190" width="90" height="30" as="geometry" />
        </mxCell>
      </root>
    </mxGraphModel>
  </diagram>
</mxfile>
